<svg xmlns="http://www.w3.org/2000/svg" width="200" height="35" viewBox="0 0 200 35">
  <g fill="none" fill-rule="evenodd">
    <path fill="#007A9B" d="M16.5788448,27.6314079 L16.5788448,35 L9.2102527,35 L9.2102527,27.6314079 L16.5788448,27.6314079 Z M25.7897473,27.6314079 L25.7897473,35 L18.4211552,35 L18.4211552,27.6314079 L25.7897473,27.6314079 Z M7.36859206,18.4211552 L7.36859206,25.7897473 L-2.17603713e-14,25.7897473 L-2.17603713e-14,18.4211552 L7.36859206,18.4211552 Z M7.36859206,9.21090254 L7.36859206,16.5794946 L-2.17603713e-14,16.5794946 L-2.17603713e-14,9.21090254 L7.36859206,9.21090254 Z M16.5788448,-6.70574707e-14 L16.5788448,7.36859206 L9.2102527,7.36859206 L9.2102527,-6.70574707e-14 L16.5788448,-6.70574707e-14 Z M25.7897473,-6.70574707e-14 L25.7897473,7.36859206 L18.4211552,7.36859206 L18.4211552,-6.70574707e-14 L25.7897473,-6.70574707e-14 Z"/>
    <path fill="#181D32" d="M45.6387662,8.75019481 C48.4556494,8.75019481 50.6166883,9.80084416 52.1218831,11.9021429 C52.8075974,12.8346104 53.292013,13.8774675 53.5751299,15.0307143 L50.1101948,15.0307143 C49.916039,14.4937013 49.617987,14.0040909 49.2153896,13.5612338 C48.2770779,12.5657792 47.0842208,12.0677273 45.6387662,12.0677273 C44.1777273,12.0677273 42.9738312,12.5774675 42.0277273,13.5969481 C41.080974,14.6157792 40.6075974,15.9235714 40.6075974,17.5196753 C40.6075974,19.1774675 41.066039,20.5014935 41.9829221,21.4891558 C42.8998052,22.4761688 44.117987,22.9703247 45.6387662,22.9703247 C47.1588961,22.9703247 48.380974,22.4177273 49.305,21.3112338 C49.7225325,20.7898052 50.0277273,20.2365584 50.2212338,19.6521429 L53.6868182,19.6521429 C53.343961,20.9008442 52.8296753,22.0066883 52.143961,22.9703247 C50.5348701,25.182013 48.3666883,26.2885065 45.6387662,26.2885065 C43.1342208,26.2885065 41.0731818,25.4547403 39.4562987,23.7878571 C37.8387662,22.1216234 37.0303247,20.0313636 37.0303247,17.5196753 C37.0303247,15.0073377 37.8387662,12.9177273 39.4562987,11.2501948 C41.0731818,9.58331169 43.1342208,8.75019481 45.6387662,8.75019481 Z M144.275325,8.75 C146.718831,8.75 148.764935,9.59935065 150.412338,11.2974026 C152.059091,12.9961039 152.882468,15.0707792 152.882468,17.5194805 C152.882468,19.9688312 152.059091,22.0422078 150.412338,23.7402597 C148.764935,25.438961 146.718831,26.2883117 144.275325,26.2883117 C141.830519,26.2883117 139.784416,25.438961 138.137013,23.7402597 C136.49026,22.0422078 135.666883,19.9688312 135.666883,17.5194805 C135.666883,15.0707792 136.49026,12.9961039 138.137013,11.2974026 C139.784416,9.59935065 141.830519,8.75 144.275325,8.75 Z M158.955195,9.22357143 L158.955195,19.2962987 C158.955195,20.433961 159.257143,21.3313636 159.861039,21.9872078 C160.464286,22.6424026 161.280519,22.9703247 162.309091,22.9703247 C163.337662,22.9703247 164.153896,22.6424026 164.757792,21.9872078 C165.361039,21.3313636 165.662987,20.433961 165.662987,19.2962987 L165.662987,9.22357143 L169.016883,9.22357143 L169.016883,19.2962987 C169.016883,21.4294156 168.412987,23.1281169 167.205844,24.3924026 C165.998701,25.6566883 164.366234,26.2885065 162.309091,26.2885065 C160.252597,26.2885065 158.62013,25.6566883 157.412987,24.3924026 C156.205844,23.1281169 155.601948,21.4294156 155.601948,19.2962987 L155.601948,9.22357143 L158.955195,9.22357143 Z M178.211818,8.75006494 C180.596883,8.75006494 182.40013,9.60266234 183.622857,11.3091558 C184.129351,12.0675974 184.487143,12.9130519 184.696234,13.8455195 L181.230649,13.8455195 C181.141039,13.5137013 180.96961,13.1981169 180.716364,12.8974675 C180.149481,12.2656494 179.315065,11.9494156 178.211818,11.9494156 C177.362468,11.9494156 176.721558,12.1188961 176.28974,12.4591558 C175.857273,12.7987662 175.641039,13.2214935 175.641039,13.7266883 C175.641039,14.6435714 176.625455,15.3383766 178.592338,15.8130519 C179.098831,15.939026 179.415714,16.0182468 179.542338,16.0494156 C179.668961,16.0818831 179.974805,16.1682468 180.459221,16.3104545 C180.942987,16.4526623 181.271558,16.5675974 181.442987,16.653961 C181.613766,16.7416234 181.905325,16.876039 182.314416,17.0572078 C182.724805,17.239026 183.015714,17.4091558 183.187143,17.5662987 C183.357922,17.7247403 183.581948,17.9344805 183.857273,18.1942208 C184.133247,18.4552597 184.330649,18.7195455 184.450779,18.9883766 C184.56961,19.2572078 184.677403,19.5688961 184.774805,19.9247403 C184.871558,20.2799351 184.91961,20.6637013 184.91961,21.0740909 C184.91961,22.5435714 184.361169,23.7799351 183.242987,24.7831818 C182.124805,25.7870779 180.55987,26.2883766 178.547532,26.2883766 C175.894935,26.2883766 173.949481,25.3403247 172.711818,23.4442208 C172.131299,22.6227922 171.728701,21.6747403 171.504675,20.6000649 L174.970909,20.6000649 C175.104675,21.0740909 175.320909,21.4929221 175.618961,21.8565584 C176.274805,22.677987 177.250779,23.089026 178.547532,23.089026 C180.485195,23.089026 181.454026,22.4565584 181.454026,21.1922727 C181.454026,20.8766883 181.353377,20.5922727 181.152078,20.3396753 C180.951429,20.0870779 180.637792,19.865 180.213117,19.6753896 C179.788442,19.4857792 179.378052,19.3318831 178.983896,19.2137013 C178.588442,19.0955195 178.078052,18.9494156 177.451429,18.7747403 C177.362468,18.7598052 177.291688,18.7435714 177.23974,18.7273377 C177.187143,18.7124026 177.11961,18.6922727 177.037792,18.6682468 C176.956623,18.6448701 176.885195,18.6253896 176.826104,18.6091558 C173.726104,17.8195455 172.175455,16.2312338 172.175455,13.8455195 C172.175455,12.4234416 172.723506,11.2188961 173.818961,10.2312338 C174.915065,9.24422078 176.379351,8.75006494 178.211818,8.75006494 Z M57.5648052,9.22376623 L61.3206494,16.0971429 L61.6336364,16.0971429 L65.3894805,9.22376623 L69.0790909,9.22376623 L63.1537662,19.7705195 L63.1537662,25.8146753 L59.7998701,25.8146753 L59.7998701,19.7705195 L53.8751948,9.22376623 L57.5648052,9.22376623 Z M79.0955195,9.22383117 C80.6611039,9.22383117 81.8903247,9.62642857 82.7844805,10.4322727 C83.6786364,11.2381169 84.1266883,12.2575974 84.1266883,13.4900649 C84.1266883,14.6751299 83.7162987,15.6075974 82.8961688,16.2868182 C82.5085065,16.5712338 82.0987662,16.7842208 81.6669481,16.9264286 L81.6669481,17.0452597 C82.1883766,17.1562987 82.6877273,17.3770779 83.1643506,17.7088961 C84.1786364,18.4192857 84.6851299,19.5017532 84.6851299,20.9556494 C84.6851299,22.3777273 84.1818831,23.5433117 83.176039,24.4517532 C82.1695455,25.3608442 80.7727922,25.8147403 78.9844805,25.8147403 L71.0468182,25.8147403 L71.0468182,9.22383117 L79.0955195,9.22383117 Z M99.4215584,9.22363636 L99.4215584,12.5424675 L91.0371429,12.5424675 L91.0371429,15.86 L97.7449351,15.86 L97.7449351,18.9411688 L91.0371429,18.9411688 L91.0371429,22.4963636 L99.4215584,22.4963636 L99.4215584,25.8145455 L87.6832468,25.8145455 L87.6832468,9.22363636 L99.4215584,9.22363636 Z M110.012792,9.2237013 C111.876429,9.2237013 113.366688,9.75681818 114.484221,10.8237013 C115.602403,11.8905844 116.161494,13.213961 116.161494,14.7931818 C116.161494,16.0262987 115.832922,17.0769481 115.177078,17.9457792 C114.521883,18.8152597 113.657597,19.4626623 112.584221,19.8892857 L116.161494,25.8146104 L112.360844,25.8146104 L109.118636,20.3626623 L105.988766,20.3626623 L105.988766,25.8146104 L102.63487,25.8146104 L102.63487,9.2237013 L110.012792,9.2237013 Z M122.470455,9.22363636 L122.470455,15.7411688 L129.401623,15.7411688 L129.401623,9.22363636 L132.755519,9.22363636 L132.755519,25.8145455 L129.401623,25.8145455 L129.401623,19.06 L122.470455,19.06 L122.470455,25.8145455 L119.116558,25.8145455 L119.116558,9.22363636 L122.470455,9.22363636 Z M199.656818,9.22363636 L199.656818,12.5424675 L191.272403,12.5424675 L191.272403,15.86 L197.980195,15.86 L197.980195,18.9411688 L191.272403,18.9411688 L191.272403,22.4963636 L199.656818,22.4963636 L199.656818,25.8145455 L187.918506,25.8145455 L187.918506,9.22363636 L199.656818,9.22363636 Z M144.275325,12.0681818 C142.814286,12.0681818 141.61039,12.5779221 140.664286,13.5967532 C139.717532,14.6155844 139.244156,15.9233766 139.244156,17.5194805 C139.244156,19.1149351 139.717532,20.4227273 140.664286,21.4415584 C141.61039,22.4603896 142.814286,22.9707792 144.275325,22.9707792 C145.735065,22.9707792 146.938312,22.4603896 147.885065,21.4415584 C148.831818,20.4227273 149.305195,19.1149351 149.305195,17.5194805 C149.305195,15.9233766 148.831818,14.6155844 147.885065,13.5967532 C146.938312,12.5779221 145.735065,12.0681818 144.275325,12.0681818 Z M78.7604545,18.8225325 L74.4007143,18.8225325 L74.4007143,22.6147403 L78.7604545,22.6147403 C79.5805844,22.6147403 80.1948701,22.4407143 80.6052597,22.0933117 C81.015,21.7459091 81.2201948,21.2874675 81.2201948,20.7186364 C81.2201948,20.1498052 81.015,19.6913636 80.6052597,19.343961 C80.1948701,18.9965584 79.5805844,18.8225325 78.7604545,18.8225325 Z M109.901104,12.5418831 L105.988766,12.5418831 L105.988766,17.0451299 L109.901104,17.0451299 C110.82513,17.0451299 111.521883,16.8431818 111.992013,16.4405844 C112.461494,16.037987 112.696558,15.4892857 112.696558,14.7931818 C112.696558,14.0983766 112.461494,13.549026 111.992013,13.1464286 C111.521883,12.7431818 110.82513,12.5418831 109.901104,12.5418831 Z M78.6487662,12.4238312 L74.4007143,12.4238312 L74.4007143,15.7413636 L78.6487662,15.7413636 C79.289026,15.7413636 79.7851299,15.5881169 80.1357792,15.2796753 C80.4857792,14.9712338 80.6611039,14.5725325 80.6611039,14.0822727 C80.6611039,13.5926623 80.4857792,13.193961 80.1357792,12.8861688 C79.7851299,12.5777273 79.289026,12.4238312 78.6487662,12.4238312 Z"/>
  </g>
</svg>
